<?xml version="1.0" encoding="UTF-8" standalone="no"?>
<!DOCTYPE svg PUBLIC "-//W3C//DTD SVG 20010904//EN"
              "http://www.w3.org/TR/2001/REC-SVG-20010904/DTD/svg10.dtd">

<svg xmlns="http://www.w3.org/2000/svg"
     width="19.6667in" height="19.6667in"
     viewBox="0 0 1416 1416">
  <path id="Pfad"
        fill="none" stroke="black" stroke-width="1"
        d="M 708.00,142.31
           C 708.00,142.31 213.03,637.29 213.03,637.29
             213.03,637.29 213.03,778.71 283.74,849.42
             354.45,920.13 495.87,920.13 495.87,920.13
             495.87,920.13 920.13,495.87 920.13,495.87
             920.13,495.87 1061.55,495.87 1132.26,566.58
             1202.97,637.29 1202.97,778.71 1202.97,778.71
             1202.97,778.71 708.00,1273.69 708.00,1273.69M 849.42,283.74
           C 849.42,283.74 378.49,754.67 378.49,754.67M 566.58,1132.26
           C 566.58,1132.26 1039.63,659.21 1039.63,659.21M 209.49,913.77
           C 209.49,913.77 159.64,965.74 159.64,965.74M 1207.22,500.11
           C 1207.22,500.11 1257.42,445.66 1257.42,445.66" />
</svg>
